<svg xmlns="http://www.w3.org/2000/svg" enable-background="new 0 0 70 70" viewBox="0 0 70 70" id="error"><path d="M3.6894531,62.6342773C5.7661133,65.9941406,9.3632812,68,13.3129883,68h43.3740234
	c3.949707,0,7.546875-2.0058594,9.6235352-5.3657227c2.0761719-3.359375,2.2612305-7.4741211,0.4951172-11.0068359
	L45.1186523,8.2539062C43.1899414,4.3964844,39.3129883,2,35,2s-8.1899414,2.3964844-10.1186523,6.2539062L3.1943359,51.6274414
	C1.4282227,55.1601562,1.6132812,59.2749023,3.6894531,62.6342773z M4.9833984,52.5219727L26.6704102,9.1484375
	C28.2822266,5.9248047,31.3959961,4,35,4s6.7177734,1.9248047,8.3295898,5.1484375l21.6870117,43.3735352
	c1.4541016,2.9077148,1.3017578,6.2954102-0.4077148,9.0610352C62.8999023,64.3486328,59.9384766,66,56.6870117,66H13.3129883
	c-3.2514648,0-6.2128906-1.6513672-7.921875-4.4169922C3.6816406,58.8173828,3.5292969,55.4296875,4.9833984,52.5219727z"></path><path d="M34.9995117 47.3867188c2.6943359 0 4.8867188-2.1918945 4.8867188-4.8862305V23.1547852c0-2.6943359-2.1923828-4.8862305-4.8867188-4.8862305s-4.8862305 2.1918945-4.8862305 4.8862305v19.3457031C30.1132812 45.1948242 32.3051758 47.3867188 34.9995117 47.3867188zM32.1132812 23.1547852c0-1.5913086 1.2949219-2.8862305 2.8862305-2.8862305 1.5917969 0 2.8867188 1.2949219 2.8867188 2.8862305v19.3457031c0 1.5913086-1.2949219 2.8862305-2.8867188 2.8862305-1.5913086 0-2.8862305-1.2949219-2.8862305-2.8862305V23.1547852zM35 59.4702148c2.7568359 0 5-2.2431641 5-5s-2.2431641-5-5-5-5 2.2431641-5 5S32.2431641 59.4702148 35 59.4702148zM35 51.4702148c1.6542969 0 3 1.3457031 3 3s-1.3457031 3-3 3-3-1.3457031-3-3S33.3457031 51.4702148 35 51.4702148z"></path></svg>